# xmcd CD database file
#
# Track frame offsets:
#	150
#	19295
#	38825
#	61702
#	80762
#	102705
#	116195
#	134707
#	155335
#	177152
#	199222
#
# Disc length: 2887 seconds
#
# Revision: 1
# Processed by: cddbd v1.5.2PL0 Copyright (c) Steve Scherf et al.
# Submitted via: CDex 1.70beta2
#
DISCID=9e0b450b
DTITLE=Human Clay - U4ia
DYEAR=1997
DGENRE=Hard Rock
TTITLE0=Lessons Of Love
TTITLE1=King Of The Nation
TTITLE2=Salvation
TTITLE3=Pain and Deception
TTITLE4=The Thin Line
TTITLE5=Speed Demon (Dedicated 2 'The Worm')
TTITLE6=U4ia
TTITLE7=Pretender
TTITLE8=Stand 4 The Fall
TTITLE9=Survive
TTITLE10=Boy On A Golden Hill (Bonus Track)
EXTD=YEAR: 1997
EXTT0=
EXTT1=
EXTT2=
EXTT3=
EXTT4=
EXTT5=
EXTT6=
EXTT7=
EXTT8=
EXTT9=
EXTT10=
PLAYORDER=
